<svg width="19" height="19" viewBox="0 0 19 19" fill="none" xmlns="http://www.w3.org/2000/svg">
<path d="M8.95612 6.1401L8.46359 8.11205C9.02096 8.25072 10.7408 8.81799 11.019 7.70146C11.309 6.539 9.51259 6.27967 8.95612 6.1401ZM8.21597 9.10793L7.67301 11.2825C8.34203 11.4491 10.4076 12.1118 10.7129 10.8854C11.0325 9.60497 8.88589 9.27451 8.21597 9.10793Z" fill="white"/>
<path d="M11.1784 0.269272C6.35477 -0.932808 1.47171 2.00261 0.269635 6.82623C-0.933345 11.6481 2.00207 16.5329 6.8221 17.7359C11.6457 18.938 16.5315 16.0035 17.7327 11.1798C18.9356 6.35711 16.0002 1.47225 11.1784 0.269272ZM12.9712 7.72036C12.8406 8.59739 12.3535 9.02149 11.7088 9.17096C12.5957 9.63199 13.0459 10.3397 12.6173 11.567C12.0842 13.0897 10.8182 13.2184 9.13261 12.8997L8.72381 14.5385L7.73694 14.2926L8.13943 12.6773C7.87612 12.6115 7.61348 12.543 7.35155 12.472L6.94726 14.0963L5.96128 13.8487L6.37008 12.2072C6.13867 12.1478 5.90455 12.0848 5.66594 12.0253L4.37922 11.7057L4.87085 10.5747C4.87085 10.5747 5.5984 10.7683 5.5885 10.7539C5.86854 10.8233 5.99189 10.6414 6.04052 10.5189L6.68793 7.93017L6.79148 7.95628C6.75808 7.94281 6.72378 7.93168 6.68883 7.92296L7.14985 6.07437C7.16156 5.86367 7.09042 5.59894 6.68973 5.49899C6.70594 5.48909 5.97208 5.32071 5.97208 5.32071L6.23411 4.2654L7.59737 4.60576L7.59647 4.61026C7.80087 4.66159 8.01157 4.71021 8.22677 4.75884L8.63107 3.13625L9.61884 3.38207L9.22265 4.97224C9.48738 5.03257 9.75481 5.0938 10.0141 5.15863L10.4085 3.57837L11.3963 3.82419L10.992 5.44677C12.2382 5.87808 13.1494 6.52279 12.9712 7.72036Z" fill="white"/>
</svg>
