<svg width="24" height="24" viewBox="0 0 24 24" fill="none" xmlns="http://www.w3.org/2000/svg">
<path d="M18.2019 8.00626C18.5275 7.61861 18.4772 7.04039 18.0896 6.71477C17.7019 6.38915 17.1237 6.43943 16.7981 6.82707L18.2019 8.00626ZM9.8 16.5833L9.11865 17.1966C9.29614 17.3938 9.55037 17.5044 9.81565 17.4999C10.0809 17.4953 10.3312 17.3761 10.5019 17.1729L9.8 16.5833ZM7.18135 12.3034C6.84268 11.9271 6.26308 11.8966 5.88678 12.2353C5.51048 12.574 5.47998 13.1536 5.81865 13.5299L7.18135 12.3034ZM23.9167 12C23.9167 5.42082 18.5792 0.0833333 12 0.0833333V1.91667C17.5667 1.91667 22.0833 6.43334 22.0833 12H23.9167ZM12 0.0833333C5.42082 0.0833333 0.0833333 5.42082 0.0833333 12H1.91667C1.91667 6.43334 6.43334 1.91667 12 1.91667V0.0833333ZM0.0833333 12C0.0833333 18.5792 5.42082 23.9167 12 23.9167V22.0833C6.43334 22.0833 1.91667 17.5667 1.91667 12H0.0833333ZM12 23.9167C18.5792 23.9167 23.9167 18.5792 23.9167 12H22.0833C22.0833 17.5667 17.5667 22.0833 12 22.0833V23.9167ZM16.7981 6.82707L9.0981 15.9937L10.5019 17.1729L18.2019 8.00626L16.7981 6.82707ZM10.4814 15.9701L7.18135 12.3034L5.81865 13.5299L9.11865 17.1966L10.4814 15.9701Z" fill="white"/>
</svg>
