<svg width="23" height="14" viewBox="0 0 23 14" fill="none" xmlns="http://www.w3.org/2000/svg">
<path d="M10.3651 12.2886C10.4177 12.3336 10.4748 12.3786 10.5308 12.4225C9.41834 13.1609 8.11249 13.5542 6.77724 13.5529C5.88722 13.5537 5.00579 13.3789 4.18336 13.0387C3.36092 12.6985 2.61362 12.1995 1.98418 11.5703C1.35474 10.9411 0.855511 10.1939 0.515049 9.3716C0.174587 8.54928 -0.000432239 7.6679 8.01622e-07 6.77788C-0.000114981 5.55208 0.332232 4.34919 0.96165 3.29732C1.59107 2.24544 2.49399 1.38397 3.57426 0.804648C4.65453 0.225321 5.87169 -0.0501716 7.09614 0.00750848C8.32059 0.0651885 9.50647 0.453881 10.5275 1.13219C10.4726 1.17939 10.4177 1.22219 10.376 1.27048C9.58491 1.9536 8.95017 2.79907 8.51496 3.7494C8.07975 4.69973 7.8543 5.73264 7.85392 6.77788C7.85392 8.89063 8.76816 10.8991 10.3651 12.2886ZM15.1514 0.00173915C13.8173 -0.000855295 12.5125 0.392577 11.4022 1.13219C11.456 1.17939 11.5109 1.22219 11.5526 1.27048C13.1572 2.65666 14.0758 4.66624 14.0758 6.77788C14.0758 8.88953 13.1594 10.8969 11.5647 12.2886C11.5109 12.3336 11.4538 12.3786 11.3989 12.4225C12.5105 13.1612 13.8157 13.5545 15.1503 13.5529C16.0473 13.5644 16.9377 13.3977 17.7698 13.0624C18.6019 12.727 19.3591 12.2298 19.9976 11.5996C20.636 10.9693 21.1429 10.2186 21.4889 9.39087C21.8349 8.56317 22.0131 7.675 22.0132 6.77789C22.0133 5.88078 21.8352 4.99258 21.4893 4.16482C21.1435 3.33707 20.6367 2.58623 19.9983 1.95588C19.36 1.32552 18.6029 0.828191 17.7708 0.49274C16.9388 0.157289 16.0484 -0.00960504 15.1514 0.00173915V0.00173915ZM10.9643 1.45487C10.1574 2.08755 9.50522 2.8957 9.05719 3.818C8.60916 4.7403 8.37708 5.75252 8.37854 6.77788C8.37641 7.80383 8.60819 8.81676 9.05625 9.73969C9.50431 10.6626 10.1569 11.4713 10.9643 12.1042C11.7715 11.471 12.424 10.6623 12.8722 9.73947C13.3204 8.81661 13.5526 7.80382 13.5512 6.77788C13.5527 5.7524 13.3205 4.74007 12.8723 3.81773C12.424 2.8954 11.7715 2.08733 10.9643 1.45487Z" fill="white"/>
<path d="M2.87708 7.36279L3.86416 5.40475H4.62194L4.06839 8.02383H3.56679L3.82654 6.78416C3.88984 6.48917 3.95254 6.22583 4.01465 5.99413H4.00569L2.98636 8.02383H2.48296L2.37369 5.99413H2.36652C2.35338 6.09923 2.33069 6.23717 2.29845 6.40796C2.2662 6.57874 2.15453 7.11737 1.96345 8.02383H1.4708L2.02436 5.40475H2.7481L2.86992 7.36279H2.87708ZM5.33135 8.05966C5.15579 8.05966 5.01726 7.99637 4.91574 7.86977C4.81542 7.74198 4.76526 7.56343 4.76526 7.33413C4.76526 7.09766 4.80825 6.87254 4.89424 6.65876C4.98023 6.44378 5.09309 6.27778 5.23283 6.16074C5.37256 6.0425 5.52602 5.98338 5.69323 5.98338C5.80907 5.98338 5.9088 6.00846 5.9924 6.05862C6.07719 6.10878 6.14288 6.18164 6.18945 6.27718H6.20379L6.3059 6.021H6.72151L6.29515 8.02383H5.88491L5.90999 7.76408H5.90282C5.74279 7.96113 5.5523 8.05966 5.33135 8.05966ZM5.54274 7.62434C5.62515 7.62434 5.70457 7.58433 5.78101 7.50432C5.85744 7.4243 5.91895 7.31622 5.96552 7.18007C6.0121 7.04272 6.03539 6.88746 6.03539 6.71429C6.03539 6.6295 6.0121 6.55963 5.96552 6.50469C5.92014 6.44856 5.85983 6.4205 5.78459 6.4205C5.70338 6.4205 5.62575 6.46349 5.5517 6.54948C5.47885 6.63547 5.42033 6.74893 5.37614 6.88985C5.33315 7.03078 5.31165 7.17051 5.31165 7.30905C5.31165 7.41415 5.33135 7.49297 5.37077 7.54552C5.41137 7.59807 5.4687 7.62434 5.54274 7.62434ZM8.27111 7.36279C8.27111 7.58732 8.19646 7.7599 8.04718 7.88052C7.89909 7.99995 7.69247 8.05966 7.42734 8.05966C7.29955 8.05966 7.18788 8.05071 7.09234 8.03279C6.99799 8.01488 6.90961 7.98502 6.82721 7.94322V7.49894C7.01471 7.60643 7.2052 7.66017 7.39868 7.66017C7.49422 7.66017 7.57245 7.64106 7.63336 7.60285C7.69426 7.56343 7.72472 7.51029 7.72472 7.44341C7.72472 7.39205 7.70262 7.34607 7.65844 7.30547C7.61425 7.26486 7.53602 7.21351 7.42376 7.1514C7.27925 7.07019 7.17833 6.98958 7.121 6.90956C7.06368 6.82835 7.03501 6.7328 7.03501 6.62293C7.03501 6.4199 7.1007 6.26285 7.23207 6.15178C7.36464 6.03952 7.55334 5.98338 7.79817 5.98338C8.03822 5.98338 8.25499 6.04011 8.44846 6.15357L8.27111 6.53873C8.10391 6.43841 7.94984 6.38825 7.80892 6.38825C7.74084 6.38825 7.6859 6.40378 7.6441 6.43483C7.6023 6.46468 7.5814 6.50529 7.5814 6.55664C7.5814 6.60322 7.60051 6.64443 7.63873 6.68025C7.67695 6.71489 7.7486 6.75908 7.8537 6.81282C8.0006 6.88806 8.10689 6.96987 8.17258 7.05825C8.23826 7.14663 8.27111 7.24814 8.27111 7.36279ZM9.4445 7.62434C9.52213 7.62434 9.61887 7.60344 9.73471 7.56164V7.96472C9.60215 8.02801 9.44331 8.05966 9.25819 8.05966C9.07905 8.05966 8.94708 8.02204 8.86228 7.9468C8.77868 7.87156 8.73688 7.75512 8.73688 7.59747C8.73688 7.53776 8.74405 7.47088 8.75838 7.39683L8.96439 6.43124H8.6921L8.74405 6.1679L9.09517 6.01742L9.33164 5.59464H9.67918L9.5914 6.021H10.0984L10.0088 6.43124H9.50362L9.2976 7.39683C9.29044 7.43266 9.28685 7.46431 9.28685 7.49178C9.28685 7.58015 9.3394 7.62434 9.4445 7.62434ZM11.2754 6.37213C11.1703 6.37213 11.0711 6.4199 10.978 6.51544C10.8848 6.61099 10.8239 6.72743 10.7952 6.86477H10.8759C11.061 6.86477 11.2049 6.83611 11.3076 6.77878C11.4115 6.72026 11.4635 6.64144 11.4635 6.54231C11.4635 6.42886 11.4008 6.37213 11.2754 6.37213ZM10.9816 8.05966C10.7308 8.05966 10.5361 7.99219 10.3975 7.85723C10.259 7.72228 10.1897 7.53179 10.1897 7.28576C10.1897 7.03854 10.2387 6.81342 10.3366 6.61039C10.4358 6.40616 10.5695 6.25091 10.7379 6.14461C10.9063 6.03713 11.0968 5.98338 11.3094 5.98338C11.5208 5.98338 11.6856 6.03235 11.8038 6.13028C11.9221 6.22702 11.9812 6.36018 11.9812 6.52977C11.9812 6.75311 11.8815 6.92568 11.682 7.0475C11.4826 7.16812 11.1977 7.22843 10.8275 7.22843H10.7361L10.7325 7.26606V7.30188C10.7325 7.41056 10.763 7.49655 10.8239 7.55985C10.886 7.62195 10.9744 7.65301 11.089 7.65301C11.1929 7.65301 11.2873 7.64166 11.3721 7.61897C11.4569 7.59628 11.5596 7.55627 11.6802 7.49894V7.9056C11.4748 8.00831 11.2419 8.05966 10.9816 8.05966ZM13.5827 5.98338C13.6532 5.98338 13.7105 5.98995 13.7547 6.00309L13.6365 6.52261C13.5827 6.5035 13.523 6.49394 13.4573 6.49394C13.3188 6.49394 13.197 6.54888 13.0919 6.65876C12.988 6.76744 12.9139 6.92389 12.8697 7.12811L12.6798 8.02383H12.1406L12.5652 6.021H12.9772L12.9396 6.39183H12.9503C13.1259 6.11953 13.3367 5.98338 13.5827 5.98338ZM14.525 8.05966C14.285 8.05966 14.1005 7.99577 13.9715 7.86798C13.8437 7.739 13.7798 7.55746 13.7798 7.32338C13.7798 7.07019 13.824 6.84029 13.9124 6.63368C14.0019 6.42587 14.1273 6.26583 14.2886 6.15357C14.4498 6.04011 14.6337 5.98338 14.8403 5.98338C15.0577 5.98338 15.2535 6.02638 15.4279 6.11237L15.2631 6.52261C15.1986 6.49514 15.1353 6.47125 15.0732 6.45095C15.0111 6.43065 14.9406 6.4205 14.8618 6.4205C14.7603 6.4205 14.6683 6.45871 14.5859 6.53515C14.5047 6.61158 14.4408 6.71668 14.3943 6.85044C14.3489 6.98301 14.3262 7.12573 14.3262 7.2786C14.3262 7.39325 14.353 7.47983 14.4068 7.53835C14.4617 7.59568 14.5376 7.62434 14.6343 7.62434C14.7251 7.62434 14.8093 7.61061 14.8869 7.58314C14.9645 7.55448 15.0445 7.51925 15.1269 7.47744V7.91814C14.9454 8.01249 14.7448 8.05966 14.525 8.05966ZM16.1194 8.05966C15.9438 8.05966 15.8053 7.99637 15.7038 7.86977C15.6035 7.74198 15.5533 7.56343 15.5533 7.33413C15.5533 7.09766 15.5963 6.87254 15.6823 6.65876C15.7683 6.44378 15.8811 6.27778 16.0209 6.16074C16.1606 6.0425 16.3141 5.98338 16.4813 5.98338C16.5971 5.98338 16.6968 6.00846 16.7804 6.05862C16.8652 6.10878 16.9309 6.18164 16.9775 6.27718H16.9918L17.094 6.021H17.5096L17.0832 8.02383H16.673L16.698 7.76408H16.6909C16.5308 7.96113 16.3404 8.05966 16.1194 8.05966ZM16.3308 7.62434C16.4132 7.62434 16.4926 7.58433 16.5691 7.50432C16.6455 7.4243 16.707 7.31622 16.7536 7.18007C16.8002 7.04272 16.8234 6.88746 16.8234 6.71429C16.8234 6.6295 16.8002 6.55963 16.7536 6.50469C16.7082 6.44856 16.6479 6.4205 16.5726 6.4205C16.4914 6.4205 16.4138 6.46349 16.3398 6.54948C16.2669 6.63547 16.2084 6.74893 16.1642 6.88985C16.1212 7.03078 16.0997 7.17051 16.0997 7.30905C16.0997 7.41415 16.1194 7.49297 16.1588 7.54552C16.1994 7.59807 16.2568 7.62434 16.3308 7.62434ZM19.0824 5.98338C19.1529 5.98338 19.2102 5.98995 19.2544 6.00309L19.1362 6.52261C19.0824 6.5035 19.0227 6.49394 18.957 6.49394C18.8185 6.49394 18.6967 6.54888 18.5916 6.65876C18.4877 6.76744 18.4136 6.92389 18.3695 7.12811L18.1796 8.02383H17.6403L18.0649 6.021H18.4769L18.4393 6.39183H18.4501C18.6256 6.11953 18.8364 5.98338 19.0824 5.98338ZM19.8456 8.05966C19.67 8.05966 19.5315 7.99577 19.43 7.86798C19.3297 7.74019 19.2795 7.56105 19.2795 7.33055C19.2795 7.09647 19.3219 6.87313 19.4067 6.66055C19.4927 6.44677 19.6056 6.28076 19.7453 6.16253C19.885 6.0431 20.0391 5.98338 20.2075 5.98338C20.3054 5.98338 20.3896 6.00548 20.4601 6.04967C20.5317 6.09386 20.5992 6.16969 20.6625 6.27718H20.6768L20.6804 6.22702C20.6876 6.09565 20.7025 5.9792 20.7252 5.87769L20.8613 5.23635H21.4006L20.8094 8.02383H20.3992L20.4242 7.76408H20.4171C20.3323 7.86798 20.2433 7.94322 20.1501 7.9898C20.0582 8.03637 19.9567 8.05966 19.8456 8.05966ZM20.0713 7.62434C20.1501 7.62434 20.2266 7.58374 20.3006 7.50253C20.3759 7.42012 20.4362 7.31084 20.4816 7.17469C20.5269 7.03854 20.5496 6.89224 20.5496 6.73579C20.5496 6.64025 20.5269 6.56381 20.4816 6.50648C20.4374 6.44916 20.3765 6.4205 20.2988 6.4205C20.2176 6.4205 20.14 6.46349 20.066 6.54948C19.9931 6.63547 19.9346 6.74893 19.8904 6.88985C19.8474 7.03078 19.8259 7.17051 19.8259 7.30905C19.8259 7.51925 19.9077 7.62434 20.0713 7.62434Z" fill="#190219"/>
</svg>
