<svg width="0" height="0" class="hidden">
  <symbol fill="none" xmlns="http://www.w3.org/2000/svg" viewBox="0 0 19 19" id="bitcoin white">
    <path d="M8.956 6.14l-.492 1.972c.557.139 2.277.706 2.555-.41.29-1.163-1.506-1.422-2.063-1.562zm-.74 2.968l-.543 2.175c.669.166 2.735.829 3.04-.398.32-1.28-1.827-1.61-2.497-1.777z" fill="#fff"></path>
    <path d="M11.178.27A8.999 8.999 0 00.27 6.825a9 9 0 006.552 10.91c4.824 1.202 9.71-1.733 10.91-6.556A9 9 0 0011.179.27zm1.793 7.45c-.13.877-.617 1.301-1.262 1.451.887.461 1.337 1.169.908 2.396-.533 1.523-1.799 1.651-3.484 1.333l-.41 1.639-.986-.246.402-1.616a41.073 41.073 0 01-.787-.205l-.405 1.624-.986-.247.41-1.642c-.232-.06-.466-.122-.705-.182l-1.287-.32.492-1.13s.727.193.717.179c.28.07.404-.113.453-.235l.647-2.589.103.026a.778.778 0 00-.102-.033l.46-1.849c.013-.21-.059-.475-.46-.575.017-.01-.717-.178-.717-.178l.262-1.056 1.363.34v.005c.204.052.415.1.63.149l.404-1.623.988.246-.396 1.59c.264.06.532.122.791.187l.395-1.58.987.245-.404 1.623c1.246.431 2.157 1.076 1.98 2.273z" fill="#fff"></path>
  </symbol>
  <symbol fill="none" xmlns="http://www.w3.org/2000/svg" viewBox="0 0 32 33" id="btc">
    <path d="M15.92 10.914l-.876 3.505c.991.247 4.048 1.255 4.543-.73.515-2.066-2.678-2.527-3.667-2.775zm-1.316 5.276l-.965 3.865c1.19.296 4.861 1.474 5.404-.706.568-2.276-3.248-2.863-4.439-3.16z" fill="#190219"></path>
    <path d="M19.87.478C11.296-1.658 2.616 3.56.48 12.134c-2.14 8.57 3.079 17.254 11.647 19.392 8.574 2.137 17.259-3.08 19.394-11.653C33.659 11.3 28.44 2.617 19.87.478zm3.187 13.245c-.232 1.56-1.098 2.313-2.244 2.579 1.577.82 2.377 2.077 1.615 4.259-.948 2.706-3.198 2.935-6.194 2.369l-.727 2.913-1.754-.437.715-2.872a71.075 71.075 0 01-1.4-.365l-.719 2.888-1.752-.44.726-2.918c-.411-.106-.827-.218-1.252-.324l-2.287-.568.874-2.01s1.293.344 1.276.319c.498.123.717-.2.803-.418l1.151-4.602.184.046a1.387 1.387 0 00-.182-.059l.82-3.286c.02-.374-.106-.845-.819-1.022.03-.018-1.275-.317-1.275-.317l.466-1.876 2.423.605-.002.008c.363.091.738.177 1.12.264l.72-2.884 1.755.437-.704 2.826c.47.107.946.216 1.407.332l.7-2.81 1.756.438-.718 2.884c2.215.766 3.835 1.912 3.518 4.041z" fill="#190219"></path>
  </symbol>
  <symbol fill="none" xmlns="http://www.w3.org/2000/svg" viewBox="0 0 23 19" id="cash">
    <path d="M21.252.235H1.119A1.119 1.119 0 000 1.354v15.659a1.118 1.118 0 001.119 1.118h20.133a1.118 1.118 0 001.118-1.118V1.353A1.118 1.118 0 0021.251.236zM20.133 12.54a3.356 3.356 0 00-3.355 3.355H5.592a3.356 3.356 0 00-3.356-3.355V5.828a3.356 3.356 0 003.356-3.356h11.184a3.355 3.355 0 003.356 3.356v6.71z" fill="#fff"></path>
    <path d="M11.185 4.71a4.479 4.479 0 00-4.474 4.473 4.479 4.479 0 004.474 4.474 4.479 4.479 0 004.474-4.474 4.479 4.479 0 00-4.474-4.474zm0 6.71a2.24 2.24 0 01-2.237-2.237 2.24 2.24 0 012.237-2.237 2.24 2.24 0 012.237 2.237 2.24 2.24 0 01-2.237 2.237z" fill="#fff"></path>
  </symbol>
  <symbol fill="none" xmlns="http://www.w3.org/2000/svg" viewBox="0 0 24 24" id="checked rounded - Copy">
    <path d="M18.202 8.006a.917.917 0 00-1.404-1.179l1.404 1.18zM9.8 16.583l-.681.614a.917.917 0 001.383-.024l-.702-.59zm-2.619-4.28A.917.917 0 105.82 13.53l1.362-1.227zM23.917 12C23.917 5.42 18.579.083 12 .083v1.834c5.567 0 10.083 4.516 10.083 10.083h1.834zM12 .083C5.42.083.083 5.421.083 12h1.834C1.917 6.433 6.433 1.917 12 1.917V.083zM.083 12c0 6.58 5.338 11.917 11.917 11.917v-1.834C6.433 22.083 1.917 17.567 1.917 12H.083zM12 23.917c6.58 0 11.917-5.338 11.917-11.917h-1.834c0 5.567-4.516 10.083-10.083 10.083v1.834zm4.798-17.09l-7.7 9.167 1.404 1.179 7.7-9.167-1.404-1.179zm-6.317 9.143l-3.3-3.667L5.82 13.53l3.3 3.667 1.362-1.227z" fill="#fff"></path>
  </symbol>
  <symbol fill="none" xmlns="http://www.w3.org/2000/svg" viewBox="0 0 25 26" id="checked rounded green">
    <path d="M18.48 8.93a.917.917 0 00-1.404-1.18l1.403 1.18zm-8.532 8.73l-.681.614a.917.917 0 001.383-.024l-.702-.59zm-2.674-4.34a.917.917 0 00-1.363 1.226l1.363-1.226zM24.287 13c0-6.681-5.42-12.102-12.102-12.102v1.834c5.669 0 10.268 4.6 10.268 10.268h1.834zM12.185.898C5.504.898.083 6.318.083 13h1.834c0-5.669 4.6-10.268 10.268-10.268V.898zM.083 13c0 6.681 5.42 12.102 12.102 12.102v-1.834c-5.669 0-10.268-4.6-10.268-10.268H.083zm12.102 12.102c6.681 0 12.102-5.42 12.102-12.102h-1.834c0 5.669-4.6 10.268-10.268 10.268v1.834zm4.89-17.352l-7.829 9.32 1.404 1.18 7.83-9.32-1.404-1.18zm-6.446 9.297L7.274 13.32 5.91 14.545l3.356 3.729 1.362-1.227z" fill="url(#paint0_linear)"></path>
    <defs>
      <linearGradient id="paint0_linear" x1="1" y1="13" x2="23.37" y2="13" gradientUnits="userSpaceOnUse">
        <stop stop-color="#00F5A0"></stop>
        <stop offset="1" stop-color="#00D9F5"></stop>
      </linearGradient>
    </defs>
  </symbol>
  <symbol fill="none" xmlns="http://www.w3.org/2000/svg" viewBox="0 0 24 24" id="checked rounded">
    <path d="M18.202 8.006a.917.917 0 00-1.404-1.179l1.404 1.18zM9.8 16.583l-.681.614a.917.917 0 001.383-.024l-.702-.59zm-2.619-4.28A.917.917 0 105.82 13.53l1.362-1.227zM23.917 12C23.917 5.42 18.579.083 12 .083v1.834c5.567 0 10.083 4.516 10.083 10.083h1.834zM12 .083C5.42.083.083 5.421.083 12h1.834C1.917 6.433 6.433 1.917 12 1.917V.083zM.083 12c0 6.58 5.338 11.917 11.917 11.917v-1.834C6.433 22.083 1.917 17.567 1.917 12H.083zM12 23.917c6.58 0 11.917-5.338 11.917-11.917h-1.834c0 5.567-4.516 10.083-10.083 10.083v1.834zm4.798-17.09l-7.7 9.167 1.404 1.179 7.7-9.167-1.404-1.179zm-6.317 9.143l-3.3-3.667L5.82 13.53l3.3 3.667 1.362-1.227z" fill="#fff"></path>
  </symbol>
  <symbol fill="none" xmlns="http://www.w3.org/2000/svg" viewBox="0 0 12 8" id="chevron-down">
    <path d="M10.707.707a1 1 0 00-1.414 0L6.414 3.586a1 1 0 01-1.414 0L2.12.707A1 1 0 10.707 2.121L5 6.414a1 1 0 001.414 0l4.293-4.293a1 1 0 000-1.414z" fill="#fff"></path>
  </symbol>
  <symbol fill="none" xmlns="http://www.w3.org/2000/svg" viewBox="0 0 7 12" id="chevron-left">
    <path d="M.707 11.183a1 1 0 001.414 0L6.414 6.89a1 1 0 000-1.414L2.12 1.183A1 1 0 00.707 2.597l2.879 2.879a1 1 0 010 1.414L.707 9.77a1 1 0 000 1.413z" fill="#fff"></path>
  </symbol>
  <symbol fill="none" xmlns="http://www.w3.org/2000/svg" viewBox="0 0 17 18" id="close menu">
    <path d="M15.556 1.768L1.768 15.556M1.768 2l13.788 13.789" stroke="#fff" stroke-width="2.5" stroke-linecap="round"></path>
  </symbol>
  <symbol fill="none" xmlns="http://www.w3.org/2000/svg" viewBox="0 0 17 18" id="close">
    <path d="M15.556 1.768L1.768 15.556M1.768 2l13.788 13.789" stroke="#fff" stroke-width="2.5" stroke-linecap="round"></path>
  </symbol>
  <symbol fill="none" xmlns="http://www.w3.org/2000/svg" viewBox="0 0 23 23" id="dashboard">
    <path d="M1.118 12.302h1.118v7.828a2.239 2.239 0 002.237 2.236h13.42a2.239 2.239 0 002.236-2.236v-7.828h1.118a1.118 1.118 0 00.791-1.91L11.973.329a1.116 1.116 0 00-1.58 0L.326 10.393a1.118 1.118 0 00.791 1.909zM11.183 2.7l6.71 6.71v10.72H4.474V9.41l6.71-6.71z" fill="#fff"></path>
    <path d="M11.183 16.775a4.478 4.478 0 004.473-4.473 4.478 4.478 0 00-4.473-4.474 4.478 4.478 0 00-4.473 4.474 4.478 4.478 0 004.473 4.473zm0-6.71a2.239 2.239 0 012.236 2.237 2.239 2.239 0 01-2.236 2.236 2.239 2.239 0 01-2.237-2.236 2.239 2.239 0 012.237-2.237z" fill="#fff"></path>
  </symbol>
  <symbol fill="none" xmlns="http://www.w3.org/2000/svg" viewBox="0 0 23 23" id="Deposit white">
    <path d="M11.185 0C5.018 0 0 5.018 0 11.185 0 17.352 5.018 22.37 11.185 22.37c6.167 0 11.185-5.018 11.185-11.185C22.37 5.018 17.352 0 11.185 0zm0 20.133c-4.934 0-8.948-4.014-8.948-8.948s4.014-8.948 8.948-8.948 8.948 4.014 8.948 8.948-4.014 8.948-8.948 8.948z" fill="#fff"></path>
    <path d="M11.185 10.066c-2.237 0-2.237-.7-2.237-1.118 0-.541.784-1.119 2.237-1.119 1.325 0 1.55.714 1.566 1.14l1.118-.021h1.119c0-1.148-.745-2.762-2.684-3.22v-1.24h-2.238v1.2c-2.204.37-3.355 1.82-3.355 3.26 0 1.253.582 3.355 4.474 3.355 2.237 0 2.237.757 2.237 1.119 0 .464-.694 1.118-2.237 1.118-2.06 0-2.225-.958-2.237-1.118H6.711c0 1.027.74 2.855 3.355 3.266v1.208h2.237v-1.214c2.205-.37 3.356-1.82 3.356-3.26 0-1.253-.582-3.356-4.474-3.356z" fill="#fff"></path>
  </symbol>
  <symbol fill="none" xmlns="http://www.w3.org/2000/svg" viewBox="0 0 48 48" id="deposit-icon">
    <path d="M24 0C10.766 0 0 10.766 0 24s10.766 24 24 24 24-10.766 24-24S37.234 0 24 0zm0 43.2C13.414 43.2 4.8 34.586 4.8 24 4.8 13.414 13.414 4.8 24 4.8c10.586 0 19.2 8.614 19.2 19.2 0 10.586-8.614 19.2-19.2 19.2z" fill="#190219"></path>
    <path d="M24 21.6c-4.8 0-4.8-1.502-4.8-2.4 0-1.162 1.682-2.4 4.8-2.4 2.844 0 3.326 1.531 3.36 2.443l2.4-.043h2.4c0-2.462-1.598-5.926-5.76-6.91V9.63h-4.8v2.575c-4.73.794-7.2 3.905-7.2 6.996 0 2.688 1.248 7.2 9.6 7.2 4.8 0 4.8 1.622 4.8 2.4 0 .996-1.488 2.4-4.8 2.4-4.418 0-4.774-2.057-4.8-2.4h-4.8c0 2.203 1.586 6.127 7.2 7.008V38.4h4.8v-2.604c4.73-.794 7.2-3.905 7.2-6.996 0-2.688-1.248-7.2-9.6-7.2z" fill="#190219"></path>
  </symbol>
  <symbol fill="none" xmlns="http://www.w3.org/2000/svg" viewBox="0 0 24 18" id="ham - Copy">
    <path d="M2 2h19.75M2 8.97h19.75M2 15.942h19.75" stroke="#fff" stroke-width="2.724" stroke-linecap="round"></path>
  </symbol>
  <symbol fill="none" xmlns="http://www.w3.org/2000/svg" viewBox="0 0 24 18" id="ham menu">
    <path d="M2 2h19.75M2 8.97h19.75M2 15.942h19.75" stroke="#fff" stroke-width="2.724" stroke-linecap="round"></path>
  </symbol>
  <symbol fill="none" xmlns="http://www.w3.org/2000/svg" viewBox="0 0 24 18" id="ham">
    <path d="M2 2h19.75M2 8.97h19.75M2 15.942h19.75" stroke="#fff" stroke-width="2.724" stroke-linecap="round"></path>
  </symbol>
  <symbol fill="none" xmlns="http://www.w3.org/2000/svg" viewBox="0 0 24 18" id="hamburger">
    <path d="M.783 2.01A1.4 1.4 0 012.181.61h19.574a1.398 1.398 0 010 2.797H2.181A1.398 1.398 0 01.783 2.009zM6.376 9c0-.772.626-1.398 1.398-1.398h13.981a1.398 1.398 0 010 2.796H7.774A1.398 1.398 0 016.376 9zm6.99 6.99c0-.771.626-1.398 1.398-1.398h6.991a1.398 1.398 0 010 2.797h-6.99a1.398 1.398 0 01-1.399-1.398z" fill="#fff"></path>
  </symbol>
  <symbol fill="none" xmlns="http://www.w3.org/2000/svg" viewBox="0 0 23 23" id="help center">
    <path d="M11.185 4.474a4.406 4.406 0 00-4.4 4.4h2.237c0-1.193.97-2.163 2.163-2.163 1.192 0 2.163.97 2.163 2.163 0 .669-.538 1.154-1.36 1.819-.268.21-.526.434-.773.67-1.116 1.115-1.148 2.3-1.148 2.431v.746h2.237l-.002-.707c.002-.018.037-.432.494-.888.168-.167.379-.335.598-.512.871-.706 2.19-1.771 2.19-3.559a4.404 4.404 0 00-4.399-4.4zm-1.118 11.185h2.237v2.237h-2.237v-2.237z" fill="#fff"></path>
    <path d="M11.185 0C5.018 0 0 5.018 0 11.185 0 17.352 5.018 22.37 11.185 22.37c6.167 0 11.185-5.018 11.185-11.185C22.37 5.018 17.352 0 11.185 0zm0 20.133c-4.934 0-8.948-4.014-8.948-8.948s4.014-8.948 8.948-8.948 8.948 4.014 8.948 8.948-4.014 8.948-8.948 8.948z" fill="#fff"></path>
  </symbol>
  <symbol fill="none" xmlns="http://www.w3.org/2000/svg" viewBox="0 0 23 21" id="history">
    <path d="M12.185 5.592a1 1 0 00-1 1v3.593a1 1 0 001 1h3.592a1 1 0 001-1v-.237a1 1 0 00-1-1h-1.355a1 1 0 01-1-1V6.592a1 1 0 00-1-1h-.237z" fill="#fff"></path>
    <path d="M21.578 6.148A10.07 10.07 0 0014.332.204a10.167 10.167 0 00-4.055 0c-1.93.395-3.7 1.35-5.092 2.744a10.025 10.025 0 00-2.948 7.118l.001.028h-.23a1 1 0 00-.799 1.603l1.348 1.786a1 1 0 001.597 0l1.348-1.787a1 1 0 00-.799-1.602h-.228l-.001-.028A7.781 7.781 0 015.811 5.69a7.903 7.903 0 012.115-2.116 7.833 7.833 0 0112.049 4.911 7.964 7.964 0 010 3.16 7.76 7.76 0 01-1.18 2.799 7.895 7.895 0 01-3.444 2.838 7.85 7.85 0 01-1.468.456 7.958 7.958 0 01-3.158 0 7.78 7.78 0 01-3.207-1.475c-.437-.337-1.066-.343-1.457.047l-.168.169c-.39.39-.393 1.027.034 1.377a10.05 10.05 0 006.377 2.278 10.142 10.142 0 003.918-.791 10.077 10.077 0 005.356-13.194z" fill="#fff"></path>
  </symbol>
  <symbol fill="none" xmlns="http://www.w3.org/2000/svg" viewBox="0 0 23 43" id="iphone-icon - Copy">
    <path d="M5.667 2h12.222M5.667 2C3.642 2 2 3.766 2 5.945v31.562c0 2.18 1.642 3.946 3.667 3.946h12.222c2.025 0 3.666-1.767 3.666-3.946V5.945C21.555 3.766 19.914 2 17.89 2M5.667 2H7.5a.59.59 0 01.432.193c.115.123.18.29.18.465 0 .348.128.683.357.93.23.246.54.385.864.385h4.89c.323 0 .634-.139.863-.386.23-.246.358-.58.358-.93a.68.68 0 01.18-.464.59.59 0 01.43-.193h1.834" stroke="#fff" stroke-width="2.444" stroke-linecap="round" stroke-linejoin="round"></path>
  </symbol>
  <symbol fill="none" xmlns="http://www.w3.org/2000/svg" viewBox="0 0 23 43" id="iphone-icon">
    <path d="M5.667 2h12.222M5.667 2C3.642 2 2 3.766 2 5.945v31.562c0 2.18 1.642 3.946 3.667 3.946h12.222c2.025 0 3.666-1.767 3.666-3.946V5.945C21.555 3.766 19.914 2 17.89 2M5.667 2H7.5a.59.59 0 01.432.193c.115.123.18.29.18.465 0 .348.128.683.357.93.23.246.54.385.864.385h4.89c.323 0 .634-.139.863-.386.23-.246.358-.58.358-.93a.68.68 0 01.18-.464.59.59 0 01.43-.193h1.834" stroke="#fff" stroke-width="2.444" stroke-linecap="round" stroke-linejoin="round"></path>
  </symbol>
  <symbol fill="none" xmlns="http://www.w3.org/2000/svg" viewBox="0 0 26 39" id="location-icon - Copy">
    <path d="M13 2C6.927 2 2 7.165 2 13.527c0 7.32 7.333 18.92 10.026 22.927.112.17.258.307.428.402a1.115 1.115 0 001.092 0c.17-.095.316-.233.428-.402C16.667 32.449 24 20.853 24 13.527 24 7.165 19.073 2 13 2z" stroke="#fff" stroke-width="2.444" stroke-linecap="round" stroke-linejoin="round"></path>
    <path d="M13 18.155c2.025 0 3.667-1.809 3.667-4.039 0-2.23-1.642-4.039-3.667-4.039s-3.667 1.809-3.667 4.039c0 2.23 1.642 4.039 3.667 4.039z" stroke="#fff" stroke-width="2.444" stroke-linecap="round" stroke-linejoin="round"></path>
  </symbol>
  <symbol fill="none" xmlns="http://www.w3.org/2000/svg" viewBox="0 0 26 39" id="location-icon">
    <path d="M13 2C6.927 2 2 7.165 2 13.527c0 7.32 7.333 18.92 10.026 22.927.112.17.258.307.428.402a1.115 1.115 0 001.092 0c.17-.095.316-.233.428-.402C16.667 32.449 24 20.853 24 13.527 24 7.165 19.073 2 13 2z" stroke="#fff" stroke-width="2.444" stroke-linecap="round" stroke-linejoin="round"></path>
    <path d="M13 18.155c2.025 0 3.667-1.809 3.667-4.039 0-2.23-1.642-4.039-3.667-4.039s-3.667 1.809-3.667 4.039c0 2.23 1.642 4.039 3.667 4.039z" stroke="#fff" stroke-width="2.444" stroke-linecap="round" stroke-linejoin="round"></path>
  </symbol>
  <symbol fill="none" xmlns="http://www.w3.org/2000/svg" viewBox="0 0 86 115" id="log - Copy">
    <path d="M43 110.272v-31.55c0-2.232.843-4.372 2.343-5.95 1.5-1.578 3.535-2.464 5.657-2.464h30m2-3.484V15.62c0-3.347-1.264-6.557-3.515-8.924C77.235 4.33 74.183 3 71 3H15c-3.183 0-6.235 1.33-8.485 3.696C4.265 9.063 3 12.273 3 15.62v84.135c0 3.347 1.264 6.557 3.515 8.924 2.25 2.366 5.302 3.696 8.485 3.696h24.688c2.12 0 4.155-.886 5.654-2.464l35.316-37.14c1.5-1.577 2.342-3.716 2.342-5.947z" stroke="#B3B3B3" stroke-width="4.844" stroke-linejoin="round"></path>
  </symbol>
  <symbol fill="none" xmlns="http://www.w3.org/2000/svg" viewBox="0 0 86 115" id="log">
    <path d="M43 110.272v-31.55c0-2.232.843-4.372 2.343-5.95 1.5-1.578 3.535-2.464 5.657-2.464h30m2-3.484V15.62c0-3.347-1.264-6.557-3.515-8.924C77.235 4.33 74.183 3 71 3H15c-3.183 0-6.235 1.33-8.485 3.696C4.265 9.063 3 12.273 3 15.62v84.135c0 3.347 1.264 6.557 3.515 8.924 2.25 2.366 5.302 3.696 8.485 3.696h24.688c2.12 0 4.155-.886 5.654-2.464l35.316-37.14c1.5-1.577 2.342-3.716 2.342-5.947z" stroke="#B3B3B3" stroke-width="4.844" stroke-linejoin="round"></path>
  </symbol>
  <symbol fill="none" xmlns="http://www.w3.org/2000/svg" viewBox="0 0 154 32" id="logo - Copy">
    <path d="M106.831 32h-8.853l-6.642-9.04 1.475-2.006 6.384 8.687h2.95l-7.86-10.695v-.003l-2.065-2.811 2.076-2.828v-.002L104.072 0h2.953l-11.25 15.313-.604.819L106.831 32z" fill="url(#paint0_linear)"></path>
    <path d="M92.217 20.149L83.51 32h-2.953l8.113-11.038h.002l.596-.813 1.475-2.009 1.475 2.009z" fill="url(#paint1_linear)"></path>
    <path d="M101.122 0l-8.3 11.293-1.475-2.005L98.169 0h2.953z" fill="url(#paint2_linear)"></path>
    <path d="M92.217 12.115l-4.424 6.025-.6.811v.003L77.608 32h-2.953l14.614-19.885L82.1 2.36h-2.953l8.077 10.995-1.475 2.008L74.46 0h8.855l8.901 12.115z" fill="url(#paint3_linear)"></path>
    <path d="M9.8 8.727c2.523 0 4.622.684 6.297 2.052 1.698 1.368 2.759 3.231 3.184 5.59h-5.272c-.212-1.038-.695-1.852-1.45-2.441-.755-.614-1.71-.92-2.866-.92-1.32 0-2.429.495-3.325 1.486-.873.967-1.31 2.394-1.31 4.28 0 1.887.437 3.326 1.31 4.316.896.967 2.005 1.45 3.325 1.45 1.156 0 2.111-.294 2.866-.884.755-.613 1.238-1.438 1.45-2.476h5.272c-.425 2.358-1.486 4.222-3.184 5.59-1.675 1.367-3.774 2.052-6.298 2.052-1.91 0-3.608-.401-5.094-1.203a8.695 8.695 0 01-3.467-3.503C.413 22.606 0 20.826 0 18.774c0-2.052.413-3.832 1.238-5.342.826-1.533 1.981-2.7 3.467-3.502C6.191 9.128 7.89 8.727 9.8 8.727z" fill="url(#paint4_linear)"></path>
    <path d="M31.881 8.727c1.91 0 3.62.401 5.13 1.203 1.533.802 2.736 1.97 3.609 3.502.872 1.51 1.309 3.29 1.309 5.342 0 2.052-.437 3.833-1.31 5.342a9.043 9.043 0 01-3.608 3.503c-1.51.802-3.22 1.203-5.13 1.203-1.91 0-3.632-.401-5.165-1.203a9.107 9.107 0 01-3.573-3.503c-.872-1.51-1.309-3.29-1.309-5.342 0-2.052.437-3.832 1.31-5.342.872-1.533 2.063-2.7 3.572-3.502 1.533-.802 3.255-1.203 5.165-1.203zm0 4.316c-1.391 0-2.57.496-3.537 1.486-.967.967-1.45 2.382-1.45 4.245 0 1.864.483 3.29 1.45 4.281.967.967 2.146 1.45 3.537 1.45 1.392 0 2.571-.483 3.538-1.45.967-.99 1.45-2.417 1.45-4.28 0-1.864-.483-3.279-1.45-4.246-.967-.99-2.146-1.486-3.537-1.486z" fill="url(#paint5_linear)"></path>
    <path d="M44.888 3.35c0-.802.283-1.45.849-1.946.566-.519 1.309-.778 2.229-.778.92 0 1.662.26 2.228.778.566.495.85 1.144.85 1.946 0 .778-.284 1.427-.85 1.946-.566.495-1.309.743-2.228.743-.92 0-1.663-.248-2.23-.743-.565-.52-.848-1.168-.848-1.946zm5.554 5.625v19.599h-4.988v-19.6h4.988z" fill="url(#paint6_linear)"></path>
    <path d="M66.629 8.692c2.264 0 4.068.743 5.413 2.229 1.344 1.486 2.016 3.573 2.016 6.261v11.392h-4.953V17.748c0-1.556-.4-2.759-1.202-3.608-.802-.873-1.899-1.309-3.29-1.309-1.416 0-2.548.46-3.397 1.38-.849.92-1.273 2.24-1.273 3.962v10.4h-4.988V8.976h4.988v3.927c.519-1.321 1.368-2.347 2.547-3.078 1.203-.755 2.582-1.132 4.139-1.132z" fill="url(#paint7_linear)"></path>
    <path d="M115.754 24.293v4.28h-2.618c-2.193 0-3.88-.53-5.059-1.591-1.155-1.061-1.733-2.83-1.733-5.307v-8.49h-2.724v-4.21h2.724V4.128h4.988v4.847h4.387v4.21h-4.387v8.561c0 .944.189 1.604.566 1.981.377.378 1.014.566 1.91.566h1.946z" fill="url(#paint8_linear)"></path>
    <path d="M124.332 12.725c.731-1.25 1.698-2.229 2.901-2.936 1.202-.732 2.547-1.097 4.033-1.097v5.342h-1.451c-3.656 0-5.483 1.698-5.483 5.094v9.446h-4.989v-19.6h4.989v3.75z" fill="url(#paint9_linear)"></path>
    <path d="M141.703 8.727c1.651 0 3.066.39 4.245 1.168a6.353 6.353 0 012.512 3.148V8.975h4.953v19.599h-4.953V24.47a6.542 6.542 0 01-2.512 3.184c-1.179.778-2.594 1.168-4.245 1.168-1.651 0-3.137-.401-4.457-1.203-1.321-.802-2.359-1.958-3.114-3.467-.731-1.533-1.096-3.326-1.096-5.378s.365-3.832 1.096-5.342c.755-1.533 1.793-2.7 3.114-3.502 1.32-.802 2.806-1.203 4.457-1.203zm1.557 4.352c-1.557 0-2.807.507-3.75 1.52-.944 1.015-1.415 2.407-1.415 4.175 0 1.77.471 3.16 1.415 4.175.943.99 2.193 1.486 3.75 1.486 1.509 0 2.747-.507 3.714-1.521.991-1.038 1.486-2.418 1.486-4.14 0-1.745-.495-3.125-1.486-4.139-.967-1.037-2.205-1.556-3.714-1.556z" fill="url(#paint10_linear)"></path>
    <defs>
      <linearGradient id="paint0_linear" x1="0" y1="16" x2="153.413" y2="16" gradientUnits="userSpaceOnUse">
        <stop stop-color="#00F5A0"></stop>
        <stop offset="1" stop-color="#00D9F5"></stop>
      </linearGradient>
      <linearGradient id="paint1_linear" x1="0" y1="16" x2="153.413" y2="16" gradientUnits="userSpaceOnUse">
        <stop stop-color="#00F5A0"></stop>
        <stop offset="1" stop-color="#00D9F5"></stop>
      </linearGradient>
      <linearGradient id="paint2_linear" x1="0" y1="16" x2="153.413" y2="16" gradientUnits="userSpaceOnUse">
        <stop stop-color="#00F5A0"></stop>
        <stop offset="1" stop-color="#00D9F5"></stop>
      </linearGradient>
      <linearGradient id="paint3_linear" x1="0" y1="16" x2="153.413" y2="16" gradientUnits="userSpaceOnUse">
        <stop stop-color="#00F5A0"></stop>
        <stop offset="1" stop-color="#00D9F5"></stop>
      </linearGradient>
      <linearGradient id="paint4_linear" x1="0" y1="16" x2="153.413" y2="16" gradientUnits="userSpaceOnUse">
        <stop stop-color="#00F5A0"></stop>
        <stop offset="1" stop-color="#00D9F5"></stop>
      </linearGradient>
      <linearGradient id="paint5_linear" x1="0" y1="16" x2="153.413" y2="16" gradientUnits="userSpaceOnUse">
        <stop stop-color="#00F5A0"></stop>
        <stop offset="1" stop-color="#00D9F5"></stop>
      </linearGradient>
      <linearGradient id="paint6_linear" x1="0" y1="16" x2="153.413" y2="16" gradientUnits="userSpaceOnUse">
        <stop stop-color="#00F5A0"></stop>
        <stop offset="1" stop-color="#00D9F5"></stop>
      </linearGradient>
      <linearGradient id="paint7_linear" x1="0" y1="16" x2="153.413" y2="16" gradientUnits="userSpaceOnUse">
        <stop stop-color="#00F5A0"></stop>
        <stop offset="1" stop-color="#00D9F5"></stop>
      </linearGradient>
      <linearGradient id="paint8_linear" x1="0" y1="16" x2="153.413" y2="16" gradientUnits="userSpaceOnUse">
        <stop stop-color="#00F5A0"></stop>
        <stop offset="1" stop-color="#00D9F5"></stop>
      </linearGradient>
      <linearGradient id="paint9_linear" x1="0" y1="16" x2="153.413" y2="16" gradientUnits="userSpaceOnUse">
        <stop stop-color="#00F5A0"></stop>
        <stop offset="1" stop-color="#00D9F5"></stop>
      </linearGradient>
      <linearGradient id="paint10_linear" x1="0" y1="16" x2="153.413" y2="16" gradientUnits="userSpaceOnUse">
        <stop stop-color="#00F5A0"></stop>
        <stop offset="1" stop-color="#00D9F5"></stop>
      </linearGradient>
    </defs>
  </symbol>
  <symbol fill="none" xmlns="http://www.w3.org/2000/svg" viewBox="0 0 50 49" id="logo small - Copy">
    <path d="M22.826 18.859l-.835-1.136" stroke="url(#paint0_linear)" stroke-miterlimit="10"></path>
    <path d="M46.16 44.692l2.555 3.478H35.666l-2.559-3.478-7.232-9.848 2.174-2.957 9.41 12.805h4.349L30.223 28.927v-.004l-.87-1.183-2.175-2.96 2.174-2.961.887-1.207v-.004l11.853-16.13L44.648 1H49l-2.56 3.478-14.023 19.094-.89 1.207.87 1.184L46.16 44.692z" fill="url(#paint1_linear)" stroke="url(#paint2_linear)" stroke-miterlimit="10"></path>
    <path d="M27.174 30.7L25 33.66l-.878 1.196-7.229 9.836-2.555 3.478H9.985l2.56-3.478 9.398-12.793h.004l.879-1.199L25 27.74l2.174 2.96z" fill="url(#paint3_linear)" stroke="url(#paint4_linear)" stroke-miterlimit="10"></path>
    <path d="M40.3 1l-2.56 3.478-9.675 13.17-2.175-2.957 7.502-10.213L35.947 1h4.352z" fill="url(#paint5_linear)" stroke="url(#paint6_linear)" stroke-miterlimit="10"></path>
    <path d="M27.174 18.859L25 21.819l-2.174 2.96-2.174 2.96-.883 1.196v.004L8.192 44.692 5.637 48.17H1.285l2.56-3.478 13.75-18.717.879-1.196 2.178-2.96 2.174-2.96-.835-1.136L12.26 4.478H7.908l11.905 16.206-2.174 2.96L3.56 4.478 1 1h13.053l2.56 3.478 7.553 10.285.834 1.135 2.174 2.96z" fill="url(#paint7_linear)" stroke="url(#paint8_linear)" stroke-miterlimit="10"></path>
    <defs>
      <linearGradient id="paint0_linear" x1="21.991" y1="18.291" x2="22.826" y2="18.291" gradientUnits="userSpaceOnUse">
        <stop stop-color="#00F5A0"></stop>
        <stop offset="1" stop-color="#00D9F5"></stop>
      </linearGradient>
      <linearGradient id="paint1_linear" x1="25.875" y1="24.585" x2="49" y2="24.585" gradientUnits="userSpaceOnUse">
        <stop stop-color="#00F5A0"></stop>
        <stop offset="1" stop-color="#00D9F5"></stop>
      </linearGradient>
      <linearGradient id="paint2_linear" x1="25.875" y1="24.585" x2="49" y2="24.585" gradientUnits="userSpaceOnUse">
        <stop stop-color="#00F5A0"></stop>
        <stop offset="1" stop-color="#00D9F5"></stop>
      </linearGradient>
      <linearGradient id="paint3_linear" x1="9.985" y1="37.955" x2="27.174" y2="37.955" gradientUnits="userSpaceOnUse">
        <stop stop-color="#00F5A0"></stop>
        <stop offset="1" stop-color="#00D9F5"></stop>
      </linearGradient>
      <linearGradient id="paint4_linear" x1="9.985" y1="37.955" x2="27.174" y2="37.955" gradientUnits="userSpaceOnUse">
        <stop stop-color="#00F5A0"></stop>
        <stop offset="1" stop-color="#00D9F5"></stop>
      </linearGradient>
      <linearGradient id="paint5_linear" x1="25.89" y1="9.324" x2="40.299" y2="9.324" gradientUnits="userSpaceOnUse">
        <stop stop-color="#00F5A0"></stop>
        <stop offset="1" stop-color="#00D9F5"></stop>
      </linearGradient>
      <linearGradient id="paint6_linear" x1="25.89" y1="9.324" x2="40.299" y2="9.324" gradientUnits="userSpaceOnUse">
        <stop stop-color="#00F5A0"></stop>
        <stop offset="1" stop-color="#00D9F5"></stop>
      </linearGradient>
      <linearGradient id="paint7_linear" x1="1" y1="24.585" x2="27.174" y2="24.585" gradientUnits="userSpaceOnUse">
        <stop stop-color="#00F5A0"></stop>
        <stop offset="1" stop-color="#00D9F5"></stop>
      </linearGradient>
      <linearGradient id="paint8_linear" x1="1" y1="24.585" x2="27.174" y2="24.585" gradientUnits="userSpaceOnUse">
        <stop stop-color="#00F5A0"></stop>
        <stop offset="1" stop-color="#00D9F5"></stop>
      </linearGradient>
    </defs>
  </symbol>
  <symbol fill="none" xmlns="http://www.w3.org/2000/svg" viewBox="0 0 154 32" id="logo small">
    <path d="M106.831 32h-8.853l-6.642-9.04 1.475-2.006 6.384 8.687h2.95l-7.86-10.695v-.003l-2.065-2.811 2.076-2.828v-.002L104.072 0h2.953l-11.25 15.313-.604.819L106.831 32z" fill="url(#paint0_linear)"></path>
    <path d="M92.217 20.149L83.51 32h-2.953l8.113-11.038h.002l.596-.813 1.475-2.009 1.475 2.009z" fill="url(#paint1_linear)"></path>
    <path d="M101.122 0l-8.3 11.293-1.475-2.005L98.169 0h2.953z" fill="url(#paint2_linear)"></path>
    <path d="M92.217 12.115l-4.424 6.025-.6.811v.003L77.608 32h-2.953l14.614-19.885L82.1 2.36h-2.953l8.077 10.995-1.475 2.008L74.46 0h8.855l8.901 12.115z" fill="url(#paint3_linear)"></path>
    <path d="M9.8 8.727c2.523 0 4.622.684 6.297 2.052 1.698 1.368 2.759 3.231 3.184 5.59h-5.272c-.212-1.038-.695-1.852-1.45-2.441-.755-.614-1.71-.92-2.866-.92-1.32 0-2.429.495-3.325 1.486-.873.967-1.31 2.394-1.31 4.28 0 1.887.437 3.326 1.31 4.316.896.967 2.005 1.45 3.325 1.45 1.156 0 2.111-.294 2.866-.884.755-.613 1.238-1.438 1.45-2.476h5.272c-.425 2.358-1.486 4.222-3.184 5.59-1.675 1.367-3.774 2.052-6.298 2.052-1.91 0-3.608-.401-5.094-1.203a8.695 8.695 0 01-3.467-3.503C.413 22.606 0 20.826 0 18.774c0-2.052.413-3.832 1.238-5.342.826-1.533 1.981-2.7 3.467-3.502C6.191 9.128 7.89 8.727 9.8 8.727z" fill="url(#paint4_linear)"></path>
    <path d="M31.881 8.727c1.91 0 3.62.401 5.13 1.203 1.533.802 2.736 1.97 3.609 3.502.872 1.51 1.309 3.29 1.309 5.342 0 2.052-.437 3.833-1.31 5.342a9.043 9.043 0 01-3.608 3.503c-1.51.802-3.22 1.203-5.13 1.203-1.91 0-3.632-.401-5.165-1.203a9.107 9.107 0 01-3.573-3.503c-.872-1.51-1.309-3.29-1.309-5.342 0-2.052.437-3.832 1.31-5.342.872-1.533 2.063-2.7 3.572-3.502 1.533-.802 3.255-1.203 5.165-1.203zm0 4.316c-1.391 0-2.57.496-3.537 1.486-.967.967-1.45 2.382-1.45 4.245 0 1.864.483 3.29 1.45 4.281.967.967 2.146 1.45 3.537 1.45 1.392 0 2.571-.483 3.538-1.45.967-.99 1.45-2.417 1.45-4.28 0-1.864-.483-3.279-1.45-4.246-.967-.99-2.146-1.486-3.537-1.486z" fill="url(#paint5_linear)"></path>
    <path d="M44.888 3.35c0-.802.283-1.45.849-1.946.566-.519 1.309-.778 2.229-.778.92 0 1.662.26 2.228.778.566.495.85 1.144.85 1.946 0 .778-.284 1.427-.85 1.946-.566.495-1.309.743-2.228.743-.92 0-1.663-.248-2.23-.743-.565-.52-.848-1.168-.848-1.946zm5.554 5.625v19.599h-4.988v-19.6h4.988z" fill="url(#paint6_linear)"></path>
    <path d="M66.629 8.692c2.264 0 4.068.743 5.413 2.229 1.344 1.486 2.016 3.573 2.016 6.261v11.392h-4.953V17.748c0-1.556-.4-2.759-1.202-3.608-.802-.873-1.899-1.309-3.29-1.309-1.416 0-2.548.46-3.397 1.38-.849.92-1.273 2.24-1.273 3.962v10.4h-4.988V8.976h4.988v3.927c.519-1.321 1.368-2.347 2.547-3.078 1.203-.755 2.582-1.132 4.139-1.132z" fill="url(#paint7_linear)"></path>
    <path d="M115.754 24.293v4.28h-2.618c-2.193 0-3.88-.53-5.059-1.591-1.155-1.061-1.733-2.83-1.733-5.307v-8.49h-2.724v-4.21h2.724V4.128h4.988v4.847h4.387v4.21h-4.387v8.561c0 .944.189 1.604.566 1.981.377.378 1.014.566 1.91.566h1.946z" fill="url(#paint8_linear)"></path>
    <path d="M124.332 12.725c.731-1.25 1.698-2.229 2.901-2.936 1.202-.732 2.547-1.097 4.033-1.097v5.342h-1.451c-3.656 0-5.483 1.698-5.483 5.094v9.446h-4.989v-19.6h4.989v3.75z" fill="url(#paint9_linear)"></path>
    <path d="M141.703 8.727c1.651 0 3.066.39 4.245 1.168a6.353 6.353 0 012.512 3.148V8.975h4.953v19.599h-4.953V24.47a6.542 6.542 0 01-2.512 3.184c-1.179.778-2.594 1.168-4.245 1.168-1.651 0-3.137-.401-4.457-1.203-1.321-.802-2.359-1.958-3.114-3.467-.731-1.533-1.096-3.326-1.096-5.378s.365-3.832 1.096-5.342c.755-1.533 1.793-2.7 3.114-3.502 1.32-.802 2.806-1.203 4.457-1.203zm1.557 4.352c-1.557 0-2.807.507-3.75 1.52-.944 1.015-1.415 2.407-1.415 4.175 0 1.77.471 3.16 1.415 4.175.943.99 2.193 1.486 3.75 1.486 1.509 0 2.747-.507 3.714-1.521.991-1.038 1.486-2.418 1.486-4.14 0-1.745-.495-3.125-1.486-4.139-.967-1.037-2.205-1.556-3.714-1.556z" fill="url(#paint10_linear)"></path>
    <defs>
      <linearGradient id="paint0_linear" x1="0" y1="16" x2="153.413" y2="16" gradientUnits="userSpaceOnUse">
        <stop stop-color="#00F5A0"></stop>
        <stop offset="1" stop-color="#00D9F5"></stop>
      </linearGradient>
      <linearGradient id="paint1_linear" x1="0" y1="16" x2="153.413" y2="16" gradientUnits="userSpaceOnUse">
        <stop stop-color="#00F5A0"></stop>
        <stop offset="1" stop-color="#00D9F5"></stop>
      </linearGradient>
      <linearGradient id="paint2_linear" x1="0" y1="16" x2="153.413" y2="16" gradientUnits="userSpaceOnUse">
        <stop stop-color="#00F5A0"></stop>
        <stop offset="1" stop-color="#00D9F5"></stop>
      </linearGradient>
      <linearGradient id="paint3_linear" x1="0" y1="16" x2="153.413" y2="16" gradientUnits="userSpaceOnUse">
        <stop stop-color="#00F5A0"></stop>
        <stop offset="1" stop-color="#00D9F5"></stop>
      </linearGradient>
      <linearGradient id="paint4_linear" x1="0" y1="16" x2="153.413" y2="16" gradientUnits="userSpaceOnUse">
        <stop stop-color="#00F5A0"></stop>
        <stop offset="1" stop-color="#00D9F5"></stop>
      </linearGradient>
      <linearGradient id="paint5_linear" x1="0" y1="16" x2="153.413" y2="16" gradientUnits="userSpaceOnUse">
        <stop stop-color="#00F5A0"></stop>
        <stop offset="1" stop-color="#00D9F5"></stop>
      </linearGradient>
      <linearGradient id="paint6_linear" x1="0" y1="16" x2="153.413" y2="16" gradientUnits="userSpaceOnUse">
        <stop stop-color="#00F5A0"></stop>
        <stop offset="1" stop-color="#00D9F5"></stop>
      </linearGradient>
      <linearGradient id="paint7_linear" x1="0" y1="16" x2="153.413" y2="16" gradientUnits="userSpaceOnUse">
        <stop stop-color="#00F5A0"></stop>
        <stop offset="1" stop-color="#00D9F5"></stop>
      </linearGradient>
      <linearGradient id="paint8_linear" x1="0" y1="16" x2="153.413" y2="16" gradientUnits="userSpaceOnUse">
        <stop stop-color="#00F5A0"></stop>
        <stop offset="1" stop-color="#00D9F5"></stop>
      </linearGradient>
      <linearGradient id="paint9_linear" x1="0" y1="16" x2="153.413" y2="16" gradientUnits="userSpaceOnUse">
        <stop stop-color="#00F5A0"></stop>
        <stop offset="1" stop-color="#00D9F5"></stop>
      </linearGradient>
      <linearGradient id="paint10_linear" x1="0" y1="16" x2="153.413" y2="16" gradientUnits="userSpaceOnUse">
        <stop stop-color="#00F5A0"></stop>
        <stop offset="1" stop-color="#00D9F5"></stop>
      </linearGradient>
    </defs>
  </symbol>
  <symbol fill="none" xmlns="http://www.w3.org/2000/svg" viewBox="0 0 23 21" id="logo">
    <path d="M.976 9.404a1 1 0 000 1.562l2.991 2.393a1 1 0 001.625-.781v-1.275h9.066a1 1 0 001-1v-.236a1 1 0 00-1-1H5.591V7.792a1 1 0 00-1.625-.78L.977 9.403z" fill="#fff"></path>
    <path d="M12.303.118a9.996 9.996 0 00-6.38 2.279c-.426.35-.422.986-.032 1.376l.17.169c.39.39 1.02.384 1.456.046a7.77 7.77 0 014.786-1.633c2.092 0 4.058.815 5.536 2.294a7.779 7.779 0 012.294 5.536 7.78 7.78 0 01-2.294 5.536 7.779 7.779 0 01-5.536 2.294 7.77 7.77 0 01-4.786-1.633c-.437-.338-1.066-.344-1.457.046l-.167.168c-.39.39-.394 1.027.033 1.378a9.986 9.986 0 006.377 2.278 9.997 9.997 0 007.118-2.95 9.997 9.997 0 002.949-7.117 9.996 9.996 0 00-2.95-7.117 9.996 9.996 0 00-7.117-2.95z" fill="#fff"></path>
  </symbol>
  <symbol fill="none" xmlns="http://www.w3.org/2000/svg" viewBox="0 0 48 30" id="logout">
    <path d="M22.601 27.021c.115.098.24.196.361.292a14.774 14.774 0 01-8.184 2.465A14.767 14.767 0 010 15.005a14.778 14.778 0 0122.955-12.31c-.12.102-.239.196-.33.301a15.875 15.875 0 00-5.5 12.009c0 4.607 1.994 8.986 5.476 12.016zM33.038.229a14.694 14.694 0 00-8.175 2.465c.117.103.237.197.328.302a15.867 15.867 0 015.501 12.009 15.95 15.95 0 01-5.475 12.016c-.117.098-.242.196-.361.292a14.746 14.746 0 008.18 2.465A14.778 14.778 0 0048 15.005 14.775 14.775 0 0033.038.229zm-9.13 3.169a14.722 14.722 0 00-5.639 11.607 14.717 14.717 0 005.639 11.614 14.736 14.736 0 005.64-11.614 14.719 14.719 0 00-5.64-11.607z" fill="#190219"></path>
    <path d="M6.273 16.558l2.153-4.27h1.652L8.871 18H7.777l.567-2.703c.138-.644.274-1.218.41-1.723h-.02L6.512 18H5.414l-.238-4.426H5.16c-.028.23-.078.53-.148.902-.07.373-.314 1.547-.73 3.524H3.206l1.207-5.711h1.578l.266 4.27h.015zm5.352 1.52c-.383 0-.685-.138-.906-.414-.219-.279-.328-.668-.328-1.168 0-.516.093-1.007.28-1.473.188-.469.434-.83.74-1.086a1.52 1.52 0 011.003-.386c.253 0 .47.054.652.163.185.11.329.269.43.477h.031l.223-.559h.906L13.726 18h-.894l.055-.567h-.016c-.349.43-.764.645-1.246.645zm.46-.95c.18 0 .354-.087.52-.261.167-.175.301-.41.403-.707.101-.3.152-.638.152-1.016a.682.682 0 00-.152-.457.482.482 0 00-.395-.183c-.177 0-.346.093-.508.28a2.113 2.113 0 00-.382.743 3.11 3.11 0 00-.141.914c0 .23.043.401.129.516a.447.447 0 00.375.172zm5.95-.57c0 .49-.163.866-.488 1.13-.323.26-.774.39-1.352.39-.278 0-.522-.02-.73-.059a2.159 2.159 0 01-.578-.195v-.969a2.48 2.48 0 001.246.352.948.948 0 00.512-.125.396.396 0 00.199-.348.4.4 0 00-.145-.3 2.862 2.862 0 00-.512-.337c-.315-.177-.535-.353-.66-.527a1.056 1.056 0 01-.187-.625c0-.443.143-.785.43-1.027.289-.245.7-.367 1.234-.367.523 0 .996.123 1.418.37l-.387.84c-.364-.218-.7-.328-1.008-.328a.588.588 0 00-.359.102.31.31 0 00-.137.265.36.36 0 00.125.27c.084.075.24.172.469.29.32.163.552.341.695.534.143.193.215.414.215.664zm2.559.57c.169 0 .38-.045.633-.136v.879c-.29.138-.636.207-1.04.207-.39 0-.678-.082-.863-.246-.182-.164-.273-.418-.273-.762 0-.13.015-.276.047-.438l.449-2.105h-.594l.113-.574.766-.328.516-.922h.758l-.192.93h1.105l-.195.894h-1.101l-.45 2.106a1.072 1.072 0 00-.023.207c0 .192.115.289.344.289zm3.992-2.73c-.23 0-.445.104-.648.313a1.508 1.508 0 00-.399.761h.176c.404 0 .717-.062.941-.187.227-.128.34-.3.34-.516 0-.247-.137-.37-.41-.37zm-.64 3.68c-.548 0-.972-.147-1.274-.442-.302-.294-.453-.71-.453-1.246 0-.539.107-1.03.32-1.472.216-.446.508-.784.875-1.016a2.267 2.267 0 011.246-.351c.461 0 .82.106 1.078.32.258.21.387.501.387.87 0 .488-.217.864-.652 1.13-.435.263-1.056.394-1.864.394h-.199l-.008.082v.078c0 .237.067.425.2.563.135.135.328.203.578.203.226 0 .432-.025.617-.074.185-.05.409-.137.672-.262v.887a3.362 3.362 0 01-1.524.336zm5.671-4.527c.154 0 .279.014.375.042l-.258 1.133a1.161 1.161 0 00-.39-.062c-.302 0-.568.12-.797.36-.227.236-.388.577-.485 1.023L27.648 18h-1.175l.925-4.367h.899l-.082.808h.023c.383-.594.843-.89 1.38-.89zm2.055 4.527c-.524 0-.926-.14-1.207-.418-.279-.281-.418-.677-.418-1.188 0-.552.096-1.053.289-1.504.195-.453.469-.802.82-1.046a2.04 2.04 0 011.203-.372c.474 0 .901.094 1.282.282l-.36.894a5.153 5.153 0 00-.414-.156 1.48 1.48 0 00-.46-.066.864.864 0 00-.602.25 1.685 1.685 0 00-.418.687c-.1.29-.149.6-.149.934 0 .25.059.439.176.566.12.125.285.188.496.188.198 0 .382-.03.55-.09.17-.063.345-.14.524-.23v.96a2.804 2.804 0 01-1.312.309zm3.476 0c-.382 0-.684-.138-.906-.414-.219-.279-.328-.668-.328-1.168 0-.516.094-1.007.281-1.473.188-.469.434-.83.739-1.086a1.52 1.52 0 011.004-.386c.252 0 .47.054.652.163.185.11.328.269.43.477h.03l.223-.559h.907L37.25 18h-.895l.055-.567h-.015c-.35.43-.765.645-1.247.645zm.461-.95c.18 0 .353-.087.52-.261a1.9 1.9 0 00.402-.707c.102-.3.153-.638.153-1.016a.682.682 0 00-.153-.457.482.482 0 00-.394-.183c-.177 0-.347.093-.508.28a2.115 2.115 0 00-.383.743c-.094.307-.14.612-.14.914 0 .23.042.401.128.516a.446.446 0 00.375.172zm6-3.578c.154 0 .279.015.375.043l-.257 1.133a1.161 1.161 0 00-.391-.062c-.302 0-.568.12-.797.36-.227.236-.388.577-.484 1.023L39.64 18h-1.176l.926-4.367h.898l-.082.808h.023c.383-.594.843-.89 1.38-.89zm1.664 4.528c-.382 0-.684-.14-.906-.418-.219-.279-.328-.67-.328-1.172 0-.51.093-.997.277-1.461.188-.466.434-.828.739-1.086.304-.26.64-.39 1.008-.39.213 0 .397.048.55.144.157.096.304.262.442.496h.03l.009-.11c.015-.286.048-.54.097-.761l.297-1.398h1.176L45.375 18h-.895l.055-.567h-.015a1.82 1.82 0 01-.583.492 1.45 1.45 0 01-.664.153zm.493-.95c.172 0 .338-.088.5-.265a1.97 1.97 0 00.394-.715 3.01 3.01 0 00.149-.957c0-.208-.05-.375-.149-.5a.475.475 0 00-.398-.187c-.177 0-.347.093-.508.28a2.115 2.115 0 00-.383.743c-.094.307-.14.612-.14.914 0 .458.178.688.535.688z" fill="#fff"></path>
  </symbol>
  <symbol fill="none" xmlns="http://www.w3.org/2000/svg" viewBox="0 0 35 56" id="mastercard white">
    <path d="M5.6 30.843V43.18H0v6.169h8.4v6.169H14v-6.169h5.6v6.169h5.6v-6.326c5.51-.768 9.8-5.907 9.8-12.18 0-4.072-1.82-7.662-4.592-9.91 2.044-2.295 3.19-5.381 3.192-8.596 0-5.73-3.581-10.52-8.4-11.9V0h-5.6v6.169H14V0H8.4v6.169H0v6.168h5.6v18.506zM23.8 43.18H11.2V30.843h12.6c3.088 0 5.6 2.767 5.6 6.169 0 3.402-2.512 6.168-5.6 6.168zM11.2 12.337h11.2c3.088 0 5.6 2.767 5.6 6.169 0 3.402-2.512 6.168-5.6 6.168H11.2V12.337z" fill="#000"></path>
  </symbol>
  <symbol fill="none" xmlns="http://www.w3.org/2000/svg" viewBox="0 0 26 23" id="mastercard">
    <path d="M5.442 5.741l7.743 6.547 7.743-6.547M4.151 2h18.068c1.188 0 2.151 1.047 2.151 2.338v14.03c0 1.29-.963 2.338-2.151 2.338H4.151C2.963 20.706 2 19.659 2 18.368V4.338C2 3.047 2.963 2 4.151 2z" stroke="#fff" stroke-width="2.85" stroke-linecap="round" stroke-linejoin="round"></path>
  </symbol>
  <symbol fill="none" xmlns="http://www.w3.org/2000/svg" viewBox="0 0 23 26" id="message-icon">
    <path d="M20.444 15.117a.5.5 0 01-.146-.353v-4.25c0-3.998-2.716-7.366-6.395-8.378A2.473 2.473 0 0011.598.572a2.473 2.473 0 00-2.305 1.564c-3.679 1.014-6.394 4.38-6.394 8.378v4.25a.5.5 0 01-.147.354L.777 17.091a1.239 1.239 0 00-.364.88v2.485a1.243 1.243 0 001.243 1.242H21.54a1.243 1.243 0 001.243-1.242V17.97a1.239 1.239 0 00-.364-.879l-1.975-1.974zm-.146 4.097h-17.4v-.728l2.122-2.122a1.238 1.238 0 00.364-.879v-4.97A6.22 6.22 0 0111.598 4.3a6.221 6.221 0 016.214 6.213v4.972c0 .33.13.646.364.878l2.122 2.122v.728zm-8.7 6.214a3.704 3.704 0 003.502-2.486H8.096a3.703 3.703 0 003.502 2.486z" fill="#fff"></path>
  </symbol>
  <symbol fill="none" xmlns="http://www.w3.org/2000/svg" viewBox="0 0 23 14" id="mining-icon">
    <path d="M10.365 12.289c.053.045.11.09.166.133a6.776 6.776 0 01-3.754 1.13A6.77 6.77 0 010 6.779a6.777 6.777 0 0110.527-5.646c-.054.047-.11.09-.151.138a7.28 7.28 0 00-2.522 5.508c0 2.113.914 4.121 2.511 5.51zM15.151.002a6.739 6.739 0 00-3.749 1.13c.054.047.109.09.15.138a7.277 7.277 0 012.524 5.508 7.315 7.315 0 01-2.511 5.51c-.054.046-.111.09-.166.134a6.763 6.763 0 003.751 1.13 6.776 6.776 0 10.001-13.55zm-4.187 1.453A6.752 6.752 0 008.38 6.778a6.75 6.75 0 002.585 5.326 6.758 6.758 0 002.587-5.326 6.75 6.75 0 00-2.587-5.323z" fill="#fff"></path>
    <path d="M2.877 7.363l.987-1.958h.758l-.554 2.619h-.501l.26-1.24c.063-.295.126-.558.188-.79h-.01l-1.019 2.03h-.503l-.11-2.03h-.006a7.06 7.06 0 01-.069.414c-.032.17-.143.71-.335 1.616h-.492l.553-2.62h.724l.122 1.959h.007zm2.454.697a.504.504 0 01-.415-.19c-.1-.128-.15-.307-.15-.536 0-.236.042-.461.128-.675.086-.215.2-.381.339-.498a.697.697 0 01.46-.178.57.57 0 01.3.076c.084.05.15.123.196.218h.015l.102-.256h.416l-.427 2.003h-.41l.025-.26h-.007c-.16.197-.35.296-.572.296zm.212-.436c.082 0 .162-.04.238-.12a.87.87 0 00.185-.324c.046-.137.07-.293.07-.466a.313.313 0 00-.07-.21.221.221 0 00-.181-.083c-.082 0-.16.042-.233.128a.97.97 0 00-.176.34 1.43 1.43 0 00-.064.42c0 .105.02.184.059.237.04.052.098.078.172.078zm2.728-.261c0 .224-.075.397-.224.518-.148.119-.355.179-.62.179-.127 0-.24-.01-.335-.027a.992.992 0 01-.265-.09V7.5c.188.107.378.161.572.161a.436.436 0 00.234-.057.182.182 0 00.092-.16.184.184 0 00-.067-.138 1.313 1.313 0 00-.234-.154.93.93 0 01-.303-.241.484.484 0 01-.086-.287c0-.203.066-.36.197-.471.133-.112.321-.169.566-.169.24 0 .457.057.65.17l-.177.386a.912.912 0 00-.462-.15.27.27 0 00-.165.046.142.142 0 00-.063.122c0 .046.02.087.058.123.038.035.11.08.215.133a.902.902 0 01.319.245c.065.089.098.19.098.305zm1.173.261a.89.89 0 00.29-.062v.403a1.098 1.098 0 01-.476.095c-.179 0-.31-.038-.396-.113-.083-.075-.125-.192-.125-.35 0-.06.007-.126.021-.2l.206-.966h-.272l.052-.263.351-.15.237-.423h.347l-.088.426h.507l-.09.41h-.504l-.206.966a.492.492 0 00-.011.095c0 .088.052.132.157.132zm1.831-1.252a.413.413 0 00-.297.143.691.691 0 00-.183.35h.08c.186 0 .33-.029.433-.086.104-.059.155-.138.155-.237 0-.113-.062-.17-.188-.17zm-.293 1.688c-.251 0-.446-.068-.584-.203-.139-.135-.208-.325-.208-.571 0-.247.049-.473.147-.676a1.04 1.04 0 01.973-.627c.21 0 .376.05.494.147a.49.49 0 01.177.4c0 .223-.1.396-.299.518-.2.12-.484.18-.854.18h-.092l-.004.038v.036c0 .109.031.195.092.258.062.062.15.093.265.093.104 0 .198-.011.283-.034.085-.023.188-.063.308-.12v.407a1.54 1.54 0 01-.698.154zm2.6-2.077c.071 0 .128.007.173.02l-.119.52a.532.532 0 00-.179-.03.491.491 0 00-.365.166.959.959 0 00-.222.47l-.19.895h-.54l.425-2.003h.412l-.037.37h.01c.176-.271.387-.408.633-.408zm.943 2.077c-.24 0-.425-.064-.553-.192-.128-.129-.192-.31-.192-.545 0-.253.044-.483.132-.69.09-.207.215-.367.377-.48a.935.935 0 01.551-.17c.218 0 .414.043.588.13l-.165.41a2.343 2.343 0 00-.19-.072.68.68 0 00-.211-.03.396.396 0 00-.276.114.772.772 0 00-.192.315 1.313 1.313 0 00-.068.429c0 .114.027.2.08.26a.3.3 0 00.228.085.767.767 0 00.253-.04 2.27 2.27 0 00.24-.107v.441a1.285 1.285 0 01-.602.142zm1.594 0a.504.504 0 01-.415-.19c-.1-.128-.15-.307-.15-.536 0-.236.042-.461.128-.675.086-.215.2-.381.339-.498a.697.697 0 01.46-.178.57.57 0 01.3.076.51.51 0 01.197.218h.014l.102-.256h.416l-.427 2.003h-.41l.025-.26h-.007c-.16.197-.35.296-.572.296zm.212-.436c.082 0 .162-.04.238-.12a.87.87 0 00.185-.324c.046-.137.07-.293.07-.466a.313.313 0 00-.07-.21.221.221 0 00-.181-.083c-.082 0-.16.042-.233.128a.97.97 0 00-.176.34 1.43 1.43 0 00-.064.42c0 .105.02.184.059.237.04.052.098.078.172.078zm2.751-1.64c.07 0 .128.006.172.02l-.118.519a.532.532 0 00-.179-.03.491.491 0 00-.365.166.958.958 0 00-.223.47l-.19.895h-.539l.425-2.003h.412l-.038.37h.011c.176-.271.386-.408.632-.408zm.764 2.076a.502.502 0 01-.416-.192c-.1-.128-.15-.307-.15-.537 0-.235.042-.458.127-.67.086-.214.199-.38.338-.498.14-.12.294-.18.462-.18a.46.46 0 01.253.067c.072.044.14.12.203.227h.014l.003-.05c.008-.131.023-.248.045-.35l.136-.64h.54l-.592 2.787h-.41l.025-.26h-.007a.834.834 0 01-.267.226.664.664 0 01-.304.07zm.225-.436c.08 0 .156-.04.23-.121a.902.902 0 00.18-.328c.046-.136.069-.283.069-.44a.36.36 0 00-.068-.229.218.218 0 00-.183-.086c-.081 0-.159.043-.233.13a.97.97 0 00-.176.34 1.43 1.43 0 00-.064.42c0 .21.082.314.245.314z" fill="#190219"></path>
  </symbol>
  <symbol fill="none" xmlns="http://www.w3.org/2000/svg" viewBox="0 0 23 22" id="Noti">
    <path d="M6.114 13.339c-1.757 0-3.227 1.178-3.71 2.778H0v2.224h2.404c.483 1.6 1.953 2.778 3.71 2.778 1.756 0 3.226-1.178 3.709-2.778H22.23v-2.224H9.823c-.483-1.6-1.953-2.778-3.71-2.778zm0 5.557a1.67 1.67 0 01-1.668-1.667 1.669 1.669 0 013.335 0 1.67 1.67 0 01-1.667 1.667zM16.117 6.67c-1.756 0-3.226 1.179-3.709 2.78H0v2.222h12.408c.483 1.6 1.953 2.78 3.71 2.78 1.756 0 3.226-1.18 3.709-2.78h2.404V9.448h-2.404c-.483-1.6-1.953-2.779-3.71-2.779zm0 5.558a1.67 1.67 0 01-1.667-1.667c0-.92.748-1.668 1.668-1.668a1.67 1.67 0 011.667 1.668 1.67 1.67 0 01-1.668 1.667z" fill="#fff"></path>
    <path d="M12.046 2.779C11.564 1.179 10.093 0 8.336 0 6.58 0 5.11 1.178 4.628 2.779H0v2.223h4.627c.483 1.6 1.953 2.779 3.71 2.779 1.756 0 3.226-1.178 3.709-2.779H22.37V2.779H12.046zm-3.71 2.779A1.67 1.67 0 016.67 3.89a1.67 1.67 0 011.668-1.667 1.67 1.67 0 011.667 1.667 1.67 1.67 0 01-1.667 1.668z" fill="#fff"></path>
  </symbol>
  <symbol fill="none" xmlns="http://www.w3.org/2000/svg" viewBox="0 0 23 25" id="notification">
    <path d="M22.332 6.073a1.237 1.237 0 00-.68-.985L11.74.13a1.239 1.239 0 00-1.11 0L.717 5.088a1.242 1.242 0 00-.678.985c-.013.133-1.19 13.343 10.644 18.606a1.224 1.224 0 001.006 0C23.523 19.416 22.345 6.207 22.332 6.073zM11.185 22.18C2.797 18.125 2.4 9.471 2.468 6.984l8.717-4.358 8.71 4.355c.046 2.465-.406 11.176-8.71 15.198z" fill="#fff"></path>
    <path d="M9.946 13.12l-2.842-2.842-1.752 1.752 4.594 4.594 7.072-7.072-1.752-1.753-5.32 5.32z" fill="#fff"></path>
  </symbol>
  <symbol fill="none" xmlns="http://www.w3.org/2000/svg" viewBox="0 0 23 25" id="security">
    <path d="M2.486 22.37a2.488 2.488 0 002.485 2.486H17.4a2.488 2.488 0 002.485-2.486V7.457h2.486V4.97H17.4V2.486A2.488 2.488 0 0014.913 0H7.457A2.488 2.488 0 004.97 2.486V4.97H0v2.486h2.486V22.37zm4.97-19.884h7.457V4.97H7.457V2.486zm9.943 4.97L17.4 22.37H4.971V7.457H17.4z" fill="#fff"></path>
    <path d="M7.457 9.942h2.485v9.942H7.457V9.942zm4.97 0h2.486v9.942h-2.485V9.942z" fill="#fff"></path>
  </symbol>
  <symbol fill="none" xmlns="http://www.w3.org/2000/svg" viewBox="0 0 48 48" id="settings">
    <path d="M40.8 12h-2.4V0H9.6v12H7.2C3.23 12 0 15.23 0 19.2V36c0 2.647 2.153 4.8 4.8 4.8h4.8V48h28.8v-7.2h4.8c2.647 0 4.8-2.153 4.8-4.8V19.2c0-3.97-3.23-7.2-7.2-7.2zM14.4 4.8h19.2V12H14.4V4.8zm19.2 38.4H14.4v-9.6h19.2v9.6zm9.6-7.2h-4.8v-7.2H9.6V36H4.8V19.2c0-1.322 1.078-2.4 2.4-2.4h33.6c1.325 0 2.4 1.078 2.4 2.4V36z" fill="#190219"></path>
    <path d="M28.8 19.2h9.6V24h-9.6v-4.8z" fill="#190219"></path>
  </symbol>
</svg>