<svg width="23" height="25" viewBox="0 0 23 25" fill="none" xmlns="http://www.w3.org/2000/svg">
<path d="M2.48556 22.37C2.48556 23.7408 3.60033 24.8556 4.97111 24.8556H17.3989C18.7697 24.8556 19.8844 23.7408 19.8844 22.37V7.45667H22.37V4.97111H17.3989V2.48556C17.3989 1.11477 16.2841 0 14.9133 0H7.45667C6.08588 0 4.97111 1.11477 4.97111 2.48556V4.97111H0V7.45667H2.48556V22.37ZM7.45667 2.48556H14.9133V4.97111H7.45667V2.48556ZM17.3989 7.45667L17.4001 22.37H4.97111V7.45667H17.3989Z" fill="white"/>
<path d="M7.45667 9.94222H9.94222V19.8844H7.45667V9.94222ZM12.4278 9.94222H14.9133V19.8844H12.4278V9.94222Z" fill="white"/>
</svg>
