<svg width="23" height="7" viewBox="0 0 23 7" fill="none" xmlns="http://www.w3.org/2000/svg">
<path d="M16.0059 0.276165C15.4946 0.0898646 14.9542 -0.00362219 14.41 0.000107338C12.6503 0.000107338 11.4075 0.886574 11.3987 2.15908C11.3877 3.09394 12.2818 3.62076 12.9582 3.93312C13.6522 4.25427 13.8843 4.45664 13.8821 4.7437C13.8777 5.18033 13.3278 5.3783 12.8164 5.3783C12.1136 5.3783 11.7297 5.28041 11.1391 5.03515L10.9202 4.93287L10.6706 6.39785C11.0984 6.57602 11.8694 6.7289 12.6657 6.7421C14.5365 6.7421 15.7595 5.86113 15.7738 4.50723C15.7892 3.76044 15.3053 3.19623 14.2868 2.7299C13.6676 2.42744 13.2838 2.22507 13.2838 1.91822C13.2838 1.64656 13.6126 1.3562 14.3 1.3562C14.7575 1.34513 15.2122 1.43097 15.6341 1.60807L15.7991 1.68175L16.0488 0.266267L16.0059 0.276165V0.276165ZM20.5724 0.118889H19.1976C18.7698 0.118889 18.4475 0.236572 18.2605 0.661108L15.6165 6.65081H17.4874L17.8613 5.66866L20.1446 5.67086C20.1985 5.90072 20.3634 6.65081 20.3634 6.65081H22.0132L20.5724 0.118889V0.118889ZM8.86796 0.0638973H10.6508L9.53556 6.59912H7.75492L8.86796 0.0616978V0.0638973V0.0638973ZM4.34213 3.66586L4.52691 4.57322L6.26904 0.118889H8.15746L5.35178 6.64201H3.46777L1.928 1.11864C1.90306 1.02756 1.84449 0.949344 1.76412 0.899772C1.20915 0.613086 0.621112 0.395528 0.0131836 0.251969L0.0373799 0.114489H2.90685C3.29619 0.129887 3.60964 0.251969 3.71413 0.667707L4.34103 3.66916V3.66586H4.34213ZM18.3727 4.33236L19.0832 2.50443C19.0744 2.52423 19.2295 2.12719 19.3197 1.88192L19.4418 2.44614L19.8542 4.33126H18.3716V4.33236H18.3727Z" fill="white"/>
</svg>
