<svg width="23" height="21" viewBox="0 0 23 21" fill="none" xmlns="http://www.w3.org/2000/svg">
<path d="M15.659 10.0665H17.896V14.5405H15.659V10.0665Z" fill="white"/>
<path d="M20.133 4.474V2.237C20.133 1.00329 19.1297 0 17.896 0H3.3555C1.5055 0 0 1.5055 0 3.3555V16.7775C0 19.2393 2.00659 20.133 3.3555 20.133H20.133C21.3667 20.133 22.37 19.1297 22.37 17.896V6.711C22.37 5.47729 21.3667 4.474 20.133 4.474ZM3.3555 2.237H17.896V4.474H3.3555C3.06751 4.46112 2.79558 4.33765 2.59635 4.1293C2.39711 3.92095 2.28592 3.64378 2.28592 3.3555C2.28592 3.06722 2.39711 2.79005 2.59635 2.5817C2.79558 2.37335 3.06751 2.24988 3.3555 2.237ZM20.133 17.896H3.36892C2.85218 17.8826 2.237 17.6779 2.237 16.7775V6.50408C2.58821 6.63047 2.96067 6.711 3.3555 6.711H20.133V17.896Z" fill="white"/>
</svg>
